ffmpeg version 4.2.7-0ubuntu0.1 Copyright (c) 2000-2022 the FFmpeg developers
  built with gcc 9 (Ubuntu 9.4.0-1ubuntu1~20.04.1)
  configuration: --prefix=/usr --extra-version=0ubuntu0.1 --toolchain=hardened --libdir=/usr/lib/x86_64-linux-gnu --incdir=/usr/include/x86_64-linux-gnu --arch=amd64 --enable-gpl --disable-stripping --enable-avresample --disable-filter=resample --enable-avisynth --enable-gnutls --enable-ladspa --enable-libaom --enable-libass --enable-libbluray --enable-libbs2b --enable-libcaca --enable-libcdio --enable-libcodec2 --enable-libflite --enable-libfontconfig --enable-libfreetype --enable-libfribidi --enable-libgme --enable-libgsm --enable-libjack --enable-libmp3lame --enable-libmysofa --enable-libopenjpeg --enable-libopenmpt --enable-libopus --enable-libpulse --enable-librsvg --enable-librubberband --enable-libshine --enable-libsnappy --enable-libsoxr --enable-libspeex --enable-libssh --enable-libtheora --enable-libtwolame --enable-libvidstab --enable-libvorbis --enable-libvpx --enable-libwavpack --enable-libwebp --enable-libx265 --enable-libxml2 --enable-libxvid --enable-libzmq --enable-libzvbi --enable-lv2 --enable-omx --enable-openal --enable-opencl --enable-opengl --enable-sdl2 --enable-libdc1394 --enable-libdrm --enable-libiec61883 --enable-nvenc --enable-chromaprint --enable-frei0r --enable-libx264 --enable-shared
  libavutil      56. 31.100 / 56. 31.100
  libavcodec     58. 54.100 / 58. 54.100
  libavformat    58. 29.100 / 58. 29.100
  libavdevice    58.  8.100 / 58.  8.100
  libavfilter     7. 57.100 /  7. 57.100
  libavresample   4.  0.  0 /  4.  0.  0
  libswscale      5.  5.100 /  5.  5.100
  libswresample   3.  5.100 /  3.  5.100
  libpostproc    55.  5.100 / 55.  5.100
[rawvideo @ 0x557e3d20f780] Estimating duration from bitrate, this may be inaccurate
Input #0, rawvideo, from 'output.yuv':
  Duration: 00:00:04.80, start: 0.000000, bitrate: 2488320 kb/s
    Stream #0:0: Video: rawvideo (I420 / 0x30323449), yuv420p, 3840x2160, 2488320 kb/s, 25 tbr, 25 tbn, 25 tbc
Stream mapping:
  Stream #0:0 -> #0:0 (rawvideo (native) -> h264 (libx264))
Press [q] to stop, [?] for help
[libx264 @ 0x557e3d214d80] using cpu capabilities: MMX2 SSE2Fast SSSE3 SSE4.2 AVX
[libx264 @ 0x557e3d214d80] profile High, level 5.1
Output #0, h264, to 'output_h264.264':
  Metadata:
    encoder         : Lavf58.29.100
    Stream #0:0: Video: h264 (libx264), yuv420p, 3840x2160, q=-1--1, 30 fps, 30 tbn, 30 tbc
    Metadata:
      encoder         : Lavc58.54.100 libx264
    Side data:
      cpb: bitrate max/min/avg: 0/0/0 buffer size: 0 vbv_delay: -1
frame=   23 fps=0.0 q=0.0 size=       0kB time=00:00:00.00 bitrate=N/A speed=   0x    frame=   24 fps=2.6 q=0.0 size=       0kB time=00:00:00.00 bitrate=N/A speed=   0x    frame=   47 fps=3.7 q=0.0 size=       0kB time=00:00:00.00 bitrate=N/A speed=   0x    frame=   48 fps=2.7 q=0.0 size=       0kB time=00:00:00.00 bitrate=N/A speed=   0x    frame=   57 fps=3.1 q=29.0 size=     256kB time=-00:00:00.03 bitrate=N/A speed=N/A    frame=   61 fps=3.2 q=29.0 size=     512kB time=00:00:00.10 bitrate=41943.0kbits/s speed=0.00522x    frame=   64 fps=3.2 q=29.0 size=     768kB time=00:00:00.20 bitrate=31457.3kbits/s speed=0.00998x    frame=   68 fps=3.3 q=29.0 size=    1024kB time=00:00:00.33 bitrate=25165.8kbits/s speed=0.0162x    frame=   74 fps=3.5 q=29.0 size=    1536kB time=00:00:00.53 bitrate=23593.0kbits/s speed=0.0253x    frame=   76 fps=3.5 q=29.0 size=    1536kB time=00:00:00.60 bitrate=20971.5kbits/s speed=0.0274x    frame=   79 fps=3.5 q=29.0 size=    1792kB time=00:00:00.70 bitrate=20971.5kbits/s speed=0.0312x    frame=   80 fps=3.4 q=29.0 size=    1792kB time=00:00:00.73 bitrate=20018.3kbits/s speed=0.0315x    frame=   81 fps=3.2 q=29.0 size=    1792kB time=00:00:00.76 bitrate=19147.9kbits/s speed=0.0304x    frame=   90 fps=3.5 q=29.0 size=    2560kB time=00:00:01.06 bitrate=19660.8kbits/s speed=0.0415x    frame=   95 fps=3.6 q=29.0 size=    2816kB time=00:00:01.23 bitrate=18704.3kbits/s speed=0.0463x    frame=   97 fps=3.5 q=29.0 size=    2816kB time=00:00:01.30 bitrate=17745.1kbits/s speed=0.0473x    frame=  100 fps=3.6 q=29.0 size=    3072kB time=00:00:01.40 bitrate=17975.6kbits/s speed=0.0499x    frame=  106 fps=3.7 q=29.0 size=    3584kB time=00:00:01.60 bitrate=18350.1kbits/s speed=0.056x    frame=  109 fps=3.7 q=29.0 size=    3584kB time=00:00:01.70 bitrate=17270.7kbits/s speed=0.0581x    frame=  111 fps=3.7 q=29.0 size=    3840kB time=00:00:01.76 bitrate=17806.0kbits/s speed=0.0585x    frame=  117 fps=3.8 q=29.0 size=    4352kB time=00:00:01.96 bitrate=18127.9kbits/s speed=0.0639x    frame=  120 fps=2.8 q=-1.0 Lsize=    8547kB time=00:00:03.93 bitrate=17800.4kbits/s speed=0.0932x    
video:8547kB audio:0kB subtitle:0kB other streams:0kB global headers:0kB muxing overhead: 0.000000%
[libx264 @ 0x557e3d214d80] frame I:1     Avg QP:25.02  size:365711
[libx264 @ 0x557e3d214d80] frame P:30    Avg QP:25.18  size:142577
[libx264 @ 0x557e3d214d80] frame B:89    Avg QP:27.57  size: 46167
[libx264 @ 0x557e3d214d80] consecutive B-frames:  0.8%  0.0%  2.5% 96.7%
[libx264 @ 0x557e3d214d80] mb I  I16..4: 12.0% 72.4% 15.6%
[libx264 @ 0x557e3d214d80] mb P  I16..4:  1.8% 10.2%  1.8%  P16..4: 40.7% 12.5%  5.3%  0.0%  0.0%    skip:27.7%
[libx264 @ 0x557e3d214d80] mb B  I16..4:  0.2%  0.8%  0.1%  B16..8: 39.7%  4.3%  0.9%  direct: 1.2%  skip:52.7%  L0:34.8% L1:62.0% BI: 3.2%
[libx264 @ 0x557e3d214d80] 8x8 transform intra:73.5% inter:85.5%
[libx264 @ 0x557e3d214d80] coded y,uvDC,uvAC intra: 64.9% 67.1% 30.0% inter: 13.0% 10.7% 0.4%
[libx264 @ 0x557e3d214d80] i16 v,h,dc,p: 13% 13%  3% 71%
[libx264 @ 0x557e3d214d80] i8 v,h,dc,ddl,ddr,vr,hd,vl,hu: 18% 11%  8%  7% 12% 14% 11% 11%  8%
[libx264 @ 0x557e3d214d80] i4 v,h,dc,ddl,ddr,vr,hd,vl,hu: 24% 12%  8%  7% 13% 13%  9%  8%  4%
[libx264 @ 0x557e3d214d80] i8c dc,h,v,p: 52% 17% 22% 10%
[libx264 @ 0x557e3d214d80] Weighted P-Frames: Y:0.0% UV:0.0%
[libx264 @ 0x557e3d214d80] ref P L0: 57.6% 21.3% 14.7%  6.3%
[libx264 @ 0x557e3d214d80] ref B L0: 91.4%  6.4%  2.2%
[libx264 @ 0x557e3d214d80] ref B L1: 96.1%  3.9%
[libx264 @ 0x557e3d214d80] kb/s:17503.71
